<svg xmlns="http://www.w3.org/2000/svg" width="24" height="24" viewBox="0 0 24 24">
  <g id="icon-home" transform="translate(-556 -188)">
    <g id="home">
      <path id="Vector" d="M.75,4.5A.755.755,0,0,1,0,3.75v-3A.755.755,0,0,1,.75,0,.755.755,0,0,1,1.5.75v3A.755.755,0,0,1,.75,4.5Z" transform="translate(567.25 202.25)" fill="#292d32"/>
      <path id="Vector-2" data-name="Vector" d="M16.355,21.135H5.155a3.913,3.913,0,0,1-3.78-3.19L.045,9.975a4.117,4.117,0,0,1,1.38-3.62L8.355.805a3.961,3.961,0,0,1,4.8.01l6.93,5.54a4.2,4.2,0,0,1,1.38,3.62l-1.33,7.96A3.976,3.976,0,0,1,16.355,21.135Zm-5.61-19.63a2.354,2.354,0,0,0-1.45.47l-6.93,5.56a2.676,2.676,0,0,0-.84,2.2l1.33,7.96a2.451,2.451,0,0,0,2.3,1.94h11.2a2.449,2.449,0,0,0,2.3-1.95l1.33-7.96a2.739,2.739,0,0,0-.84-2.2l-6.93-5.54A2.378,2.378,0,0,0,10.745,1.505Z" transform="translate(557.245 189.425)" fill="#292d32"/>
      <path id="Vector-3" data-name="Vector" d="M0,0H24V24H0Z" transform="translate(556 188)" fill="none" opacity="0"/>
    </g>
  </g>
</svg>
