<svg xmlns="http://www.w3.org/2000/svg" width="30.221" height="26.862" viewBox="0 0 30.221 26.862">
  <path id="home" d="M30.221,13.447a.837.837,0,0,0-.285-.63L15.665.225a.841.841,0,0,0-1.11,0L.285,12.817a.839.839,0,0,0,.558,1.469.827.827,0,0,0,.552-.209l1.963-1.732V24.36a2.521,2.521,0,0,0,2.518,2.518h4.2a2.521,2.521,0,0,0,2.518-2.518V18.483h5.037V24.36a2.521,2.521,0,0,0,2.518,2.518h4.2a2.521,2.521,0,0,0,2.518-2.518V12.344l1.963,1.732a.839.839,0,0,0,1.395-.629Zm-5.037-2.519V24.36a.841.841,0,0,1-.839.839h-4.2a.841.841,0,0,1-.839-.839V18.483A1.681,1.681,0,0,0,17.629,16.8H12.592a1.681,1.681,0,0,0-1.679,1.679V24.36a.841.841,0,0,1-.839.839h-4.2a.841.841,0,0,1-.839-.839V10.928c0-.02-.01-.036-.011-.056l10.085-8.9,10.085,8.9C25.194,10.892,25.184,10.908,25.184,10.928Z" transform="translate(0 -0.016)" opacity="0.998"/>
</svg>
