<svg id="fi-rr-shield" xmlns="http://www.w3.org/2000/svg" width="24" height="24.001" viewBox="0 0 24 24.001">
  <rect id="fi-rr-shield-2" data-name="fi-rr-shield" width="24" height="24" fill="none"/>
  <path id="Vector" d="M16.581,2.14A4.993,4.993,0,0,1,20,6.883V12c0,7.563-9.2,11.74-9.594,11.914a1,1,0,0,1-.812,0C9.2,23.74,0,19.563,0,12V6.883A4.993,4.993,0,0,1,3.418,2.14L9.684.051a1,1,0,0,1,.632,0L16.581,2.14ZM18,6.883a3,3,0,0,0-2.052-2.846L10,2.054,4.051,4.037A3,3,0,0,0,2,6.883V12c0,5.469,6.317,9.036,8,9.889,1.681-.856,8-4.434,8-9.889Z" transform="translate(2 0)" fill="#838383"/>
</svg>
