<svg xmlns="http://www.w3.org/2000/svg" width="24" height="24" viewBox="0 0 24 24">
  <path id="iconmonstr-delivery-7" d="M2.075,9.479A13.721,13.721,0,0,1,3,7.845V6c0-3.878,3.822-6,9-6,5.316,0,9,2.043,9,6V7.845a13.72,13.72,0,0,1,.925,1.634C23.4,9.994,24,11.7,24,13.551c0,1.925-.9,4.738-3.317,5.188A9.449,9.449,0,0,1,12,24a9.45,9.45,0,0,1-8.683-5.261C.9,18.289,0,15.476,0,13.551,0,11.7.6,10,2.075,9.479Zm19.865,3.19a2.016,2.016,0,0,1-1.724.2A21.294,21.294,0,0,0,12,11.375a21.3,21.3,0,0,0-8.216,1.5,2.014,2.014,0,0,1-1.725-.2c-.24,1.606.339,4.1,1.908,4.133a1,1,0,0,1,.871.543C7.228,22,10.82,22,12,22s4.771,0,7.162-4.656a1,1,0,0,1,.87-.543C21.885,16.765,22,13.583,22,13.551a5.9,5.9,0,0,0-.06-.882ZM15,17c0,.007-.768,2.354-3,2.354-2.15,0-3-2.347-3-2.354ZM8.75,12A1.392,1.392,0,0,0,7.5,13.5,1.393,1.393,0,0,0,8.75,15,1.393,1.393,0,0,0,10,13.5,1.392,1.392,0,0,0,8.75,12Zm7.75,1.5A1.393,1.393,0,0,1,15.25,15,1.393,1.393,0,0,1,14,13.5,1.392,1.392,0,0,1,15.25,12,1.392,1.392,0,0,1,16.5,13.5Zm3.01-4.254A16.19,16.19,0,0,0,12,7.614,17.854,17.854,0,0,0,4.464,9.287a10.558,10.558,0,0,0-.79,1.522A21.6,21.6,0,0,1,12,9.383a21.559,21.559,0,0,1,8.326,1.426,10.708,10.708,0,0,0-.816-1.563ZM9,6h6V2.83l-3,2-3-2Zm6-4H9l3,2Z" fill="#fa385f" fill-rule="evenodd"/>
</svg>
