<svg xmlns="http://www.w3.org/2000/svg" width="23" height="20.001" viewBox="0 0 23 20.001">
  <g id="bed-7" transform="translate(-64 -125.908)">
    <path id="Caminho_465" data-name="Caminho 465" d="M81.5,471.584a7.51,7.51,0,0,1,2,0c.36.134.814.757,1,1a2.631,2.631,0,0,1,1,2v5h-1a2.386,2.386,0,0,0-2-2h-15c-.876,0-1,1.124-1,2h-1v-5c0-1.2-.345-1.551,0-2,.188-.243.643-.866,1-1a7.51,7.51,0,0,1,2,0h13m0-1h-13c-3.75,0-4,1.661-4,4v5a.961.961,0,0,0,1,1h1a.961.961,0,0,0,1-1h0c0-.293-.29-1,0-1h15a1.7,1.7,0,0,1,1,1h0a.961.961,0,0,0,1,1h1a.961.961,0,0,0,1-1v-5C86.5,472.245,85.25,470.584,81.5,470.584Z" transform="translate(0 -335.175)" fill="#838383" stroke="#838383" stroke-width="1"/>
    <path id="Caminho_466" data-name="Caminho 466" d="M117.141,127.408a8.554,8.554,0,0,1,3,1,4.878,4.878,0,0,1,2,1v1h0c.218.04.752-.045,1,0,.332.06.655-.064,1,0a2.3,2.3,0,0,1,2,2v3a13.934,13.934,0,0,0-3,0h-13a6.211,6.211,0,0,0-2,0v-3c0-1.017.005-1.814,1-2,.345-.064.668.057,1,0,.251-.045.782.042,1,0h0l1-1a4.862,4.862,0,0,1,2-1,8.554,8.554,0,0,1,3-1m0-1a8.5,8.5,0,0,0-6,3c-.5.092-1.387-.114-2,0-1.5.28-2,1.475-2,3v5a5.32,5.32,0,0,1,3-1h13a9.068,9.068,0,0,1,4,1v-5c0-1.525-1.5-2.717-3-3-.61-.114-1.5.092-2,0C121.124,128.131,119.683,126.408,117.141,126.408Z" transform="translate(-41.641)" fill="#838383" stroke="#838383" stroke-width="1"/>
    <path id="Caminho_467" data-name="Caminho 467" d="M176.795,388.4v-1c.2-.729,1.229-1.539,2-2,.744-.444,2.038,0,3,0s1.248-.444,2,0a4.649,4.649,0,0,1,2,2v1h-7c-.221,0-.759-.017-1,0Zm2-1h5c-.171-.2.258-.849,0-1-.58-.342-1.234,0-2,0s-1.42-.347-2,0A7.618,7.618,0,0,0,178.795,387.4Z" transform="translate(-110.295 -251.991)" fill="#838383" stroke="#838383" stroke-width="1"/>
    <path id="Caminho_468" data-name="Caminho 468" d="M506.15,388.4h-1c-.243-.017-.779,0-1,0h-7v-1a4.649,4.649,0,0,1,2-2c.752-.444,2.035,0,3,0s1.258-.441,2,0c.771.461,1.807,1.268,2,2Zm-7-1h5c-.169-.193.253-.849,0-1-.58-.347-1.226,0-2,0s-2.42-.345-3,0C498.89,386.553,499.322,387.2,499.15,387.4Z" transform="translate(-422.65 -251.991)" fill="#838383" stroke="#838383" stroke-width="1"/>
  </g>
</svg>
