<svg xmlns="http://www.w3.org/2000/svg" width="20" height="24" viewBox="0 0 20 24">
  <path id="iconmonstr-police-10" d="M12,2.631a4.491,4.491,0,0,0,5.038.051L19,4.354c-2.851,3.671,1,7.384,1,11.011,0,2.964-2.273,4.17-4.18,4.66A11.431,11.431,0,0,0,12,21.491a11.449,11.449,0,0,0-3.82-1.466c-1.907-.49-4.18-1.7-4.18-4.66C4,11.73,7.859,8.029,5,4.354L6.963,2.681A4.485,4.485,0,0,0,12,2.631ZM17.016,0c-1.67,1.723-2.755,2.1-5,.048C9.768,2.03,8.72,1.79,7,.018L2.131,4.178C3.782,5.912,4.694,6.463,3.57,9.548,2.727,11.857,2,13.539,2,15.365c0,3.266,2.07,5.67,5.682,6.6,2.6.666,2.989.951,4.318,2.038,1.329-1.087,1.722-1.372,4.318-2.038C19.93,21.035,22,18.63,22,15.365c0-1.826-.727-3.507-1.569-5.817-1.125-3.084-.214-3.635,1.438-5.371C17.109.112,18.084.955,17.016,0ZM14.6,16,12,14.633,9.4,16l.494-2.9-2.1-2.049,2.906-.422L12,8l1.3,2.634,2.906.422L14.1,13.1Z" transform="translate(-2)" fill="#5e3d92"/>
</svg>
