<svg xmlns="http://www.w3.org/2000/svg" width="24" height="20" viewBox="0 0 24 20">
  <path id="iconmonstr-weather-95" d="M18.014,11.421,15.358,6.8l.867-.5,2.656,4.625ZM21.312,13,18.656,8.375l.867-.5L22.179,12.5ZM21.1,14.6a3.046,3.046,0,0,0-3.806-1.91L11.062,2,0,22H20.25a3.75,3.75,0,0,0,.853-7.4ZM20.25,20H3.392l4.822-8.718,1.067,2.135L11.2,9.766l1.67,2.815,1.116-1.6L16.625,15.5a1.453,1.453,0,1,1,2.688,1.1A1.869,1.869,0,0,1,22,18.25,1.752,1.752,0,0,1,20.25,20Z" transform="translate(0 -2)" fill="#9fc375"/>
</svg>
