<svg xmlns="http://www.w3.org/2000/svg" width="25.19" height="22.041" viewBox="0 0 25.19 22.041">
  <path id="newspaper" d="M22.828,32H7.085a2.364,2.364,0,0,0-2.362,2.362V50.892a1.574,1.574,0,0,1-3.149,0V35.936a.787.787,0,1,0-1.574,0V50.892a3.152,3.152,0,0,0,3.149,3.149H21.254a3.94,3.94,0,0,0,3.936-3.936V34.362A2.364,2.364,0,0,0,22.828,32Zm.787,18.105a2.364,2.364,0,0,1-2.362,2.362H5.875A3.123,3.123,0,0,0,6.3,50.892V34.362a.788.788,0,0,1,.787-.787H22.828a.788.788,0,0,1,.787.787ZM13.382,45.382H8.659a.787.787,0,0,0,0,1.574h4.723a.787.787,0,0,0,0-1.574Zm7.872,0H16.531a.787.787,0,0,0,0,1.574h4.723a.787.787,0,1,0,0-1.574Zm-7.872,3.149H8.659a.787.787,0,0,0,0,1.574h4.723a.787.787,0,0,0,0-1.574Zm7.872,0H16.531a.787.787,0,0,0,0,1.574h4.723a.787.787,0,1,0,0-1.574Zm-.787-13.382H9.446a1.574,1.574,0,0,0-1.574,1.574v4.723a1.574,1.574,0,0,0,1.574,1.574H20.467a1.574,1.574,0,0,0,1.574-1.574V36.723A1.574,1.574,0,0,0,20.467,35.149Zm0,6.3H9.446V36.723H20.467Z" transform="translate(0 -32)" fill="#2f2020" opacity="0.998"/>
</svg>
