<svg xmlns="http://www.w3.org/2000/svg" width="23.843" height="27.25" viewBox="0 0 23.843 27.25">
  <path id="user" d="M11.922,13.625A6.812,6.812,0,1,0,5.109,6.812,6.812,6.812,0,0,0,11.922,13.625Zm0-11.922A5.109,5.109,0,1,1,6.812,6.812,5.115,5.115,0,0,1,11.922,1.7Zm2.7,14.476H9.225A9.225,9.225,0,0,0,0,25.4,1.845,1.845,0,0,0,1.845,27.25H22A1.845,1.845,0,0,0,23.843,25.4,9.225,9.225,0,0,0,14.618,16.179ZM22,25.547H1.845A.142.142,0,0,1,1.7,25.4a7.531,7.531,0,0,1,7.522-7.522h5.393A7.53,7.53,0,0,1,22.14,25.4.142.142,0,0,1,22,25.547Z" opacity="0.998"/>
</svg>
