<svg xmlns="http://www.w3.org/2000/svg" width="16.154" height="10.525" viewBox="0 0 16.154 10.525">
  <path id="Caminho_261" data-name="Caminho 261" d="M10.938,188.062c0,.041.026-.028.073-.119a4.693,4.693,0,0,1,.34-.539,9.007,9.007,0,0,1,1.387-1.511,7.7,7.7,0,0,1,10.475,0A9.007,9.007,0,0,1,24.6,187.4a4.7,4.7,0,0,1,.34.539c.047.091.073.16.073.119s-.026.028-.073.119a4.7,4.7,0,0,1-.34.539,9.006,9.006,0,0,1-1.387,1.511,7.7,7.7,0,0,1-10.473,0,9.006,9.006,0,0,1-1.387-1.511,4.978,4.978,0,0,1-.342-.539c-.047-.091-.073-.16-.073-.119Zm-.938,0c0,.524.956,1.859,2.123,2.877a8.64,8.64,0,0,0,11.709,0c1.167-1.018,2.123-2.352,2.123-2.877S25,186.2,23.832,185.186a8.64,8.64,0,0,0-11.709,0C10.956,186.2,10,187.538,10,188.062Zm10.792,0a2.815,2.815,0,1,1-2.815-2.815,2.815,2.815,0,0,1,2.815,2.815Zm.939,0a3.754,3.754,0,1,0-3.754,3.754,3.753,3.753,0,0,0,3.754-3.754Z" transform="translate(-9.9 -182.8)" fill="#cecece" stroke="#cecece" stroke-width="0.2"/>
</svg>
