<svg xmlns="http://www.w3.org/2000/svg" width="24" height="23.999" viewBox="0 0 24 23.999">
  <path id="iconmonstr-party-14" d="M15.551,14.7a3,3,0,0,0,3.8,1.868l.021-.007a3,3,0,0,0,1.854-3.807c-.187-.546-.425-1.137-.695-1.757H14.565a34.962,34.962,0,0,0,.986,3.7m2.264-9.232L13.764,6.859c.183,1.037.379,2.1.59,3.141H20.08c-.655-1.4-1.445-2.94-2.265-4.529m.492-1.226a71.573,71.573,0,0,1,3.866,8.187,3.968,3.968,0,0,1-2.028,4.874l1.211,3.529c.291.812,1.322.926,2.392.808l.252.735L19.272,24,19,23.212c.9-.479,1.688-1.215,1.41-2.054L19.2,17.638a3.981,3.981,0,0,1-4.6-2.61A63.931,63.931,0,0,1,12.63,6.191l5.677-1.946ZM9.435,11H3.468c-.27.62-.508,1.211-.695,1.757a3,3,0,0,0,1.854,3.807l.021.007a3,3,0,0,0,3.8-1.868A34.486,34.486,0,0,0,9.435,11M3.92,10H9.646c.211-1.038.407-2.1.591-3.141L6.186,5.471C5.365,7.06,4.575,8.6,3.92,10m7.45-3.809a63.931,63.931,0,0,1-1.976,8.837,3.981,3.981,0,0,1-4.6,2.61L3.59,21.158C3.312,22,4.1,22.733,5,23.212L4.729,24,0,22.378l.252-.735c1.07.118,2.1,0,2.392-.808l1.211-3.529a3.969,3.969,0,0,1-2.028-4.874A71.428,71.428,0,0,1,5.694,4.245L11.37,6.191ZM18.5,14a.75.75,0,1,1-.75.75A.75.75,0,0,1,18.5,14M4,14.25a.75.75,0,1,0,.75-.75.75.75,0,0,0-.75.75M7.25,12a.75.75,0,1,1-.75.75A.751.751,0,0,1,7.25,12m10.5-.5a.751.751,0,1,1-.75.751.75.75,0,0,1,.75-.751M12.5,3.524V.5a.5.5,0,1,0-1,0V3.524a.5.5,0,1,0,1,0m1.932.462L16.074,1.2a.5.5,0,1,0-.86-.508l-1.643,2.79a.5.5,0,0,0,.862.508m-4.552.246a.5.5,0,0,1-.432-.246L7.807,1.2A.5.5,0,0,1,8.669.688l1.643,2.79a.5.5,0,0,1-.178.685.5.5,0,0,1-.253.069" transform="translate(0 -0.001)" fill="#5e3d92" fill-rule="evenodd"/>
</svg>
