<svg xmlns="http://www.w3.org/2000/svg" width="15.248" height="28.45" viewBox="0 0 15.248 28.45">
  <path id="job-management-4" d="M325.419,67.9l-1.627,1.928a1.022,1.022,0,0,1-.525.2H320a1.034,1.034,0,0,1-.52-.2L317.851,67.9h7.568m-2.842,7.465a.265.265,0,0,1,.113.043l4.391,12.249a.313.313,0,0,1-.054.173L321.635,92.5,316.25,87.84a.469.469,0,0,1-.069-.149l4.4-12.279a.264.264,0,0,1,.112-.044h1.884m4.2-9.362H316.5a1.68,1.68,0,0,0-1.442.645,1.08,1.08,0,0,0,.157,1.328l2.516,2.98a3.2,3.2,0,0,0,2.275.972h3.264a3.2,3.2,0,0,0,2.275-.972l2.516-2.98a1.08,1.08,0,0,0,.157-1.328,1.68,1.68,0,0,0-1.442-.645Zm-4.195,7.465h-1.884a2.323,2.323,0,0,0-2.172,1.321L314.1,87.127a1.961,1.961,0,0,0,.607,2.053l5.528,4.783a2.225,2.225,0,0,0,2.8,0l5.528-4.783a1.961,1.961,0,0,0,.607-2.053l-4.419-12.333A2.323,2.323,0,0,0,322.577,73.472Zm0,0" transform="translate(-314.011 -66.007)" fill="#838383"/>
</svg>
