<svg xmlns="http://www.w3.org/2000/svg" width="20.137" height="20.5" viewBox="0 0 20.137 20.5">
  <path id="newspaper" d="M17.8,32H5.523a2.011,2.011,0,0,0-1.841,2.143v15a1.341,1.341,0,0,1-1.227,1.429,1.341,1.341,0,0,1-1.227-1.429V35.571a.669.669,0,0,0-.614-.714A.669.669,0,0,0,0,35.571V49.143A2.682,2.682,0,0,0,2.455,52H16.568a3.352,3.352,0,0,0,3.068-3.571V34.143A2.011,2.011,0,0,0,17.8,32Zm.614,16.429a2.011,2.011,0,0,1-1.841,2.143H4.58a3.2,3.2,0,0,0,.33-1.429v-15a.671.671,0,0,1,.614-.714H17.8a.671.671,0,0,1,.614.714Zm-7.977-4.286H6.75a.723.723,0,0,0,0,1.429h3.682a.723.723,0,0,0,0-1.429Zm6.136,0H12.887a.723.723,0,0,0,0,1.429h3.682a.723.723,0,0,0,0-1.429ZM10.432,47H6.75a.723.723,0,0,0,0,1.429h3.682a.723.723,0,0,0,0-1.429Zm6.136,0H12.887a.723.723,0,0,0,0,1.429h3.682a.723.723,0,0,0,0-1.429Zm-.614-12.143H7.364a1.339,1.339,0,0,0-1.227,1.429v4.286A1.339,1.339,0,0,0,7.364,42h8.591a1.339,1.339,0,0,0,1.227-1.429V36.286A1.339,1.339,0,0,0,15.955,34.857Zm0,5.714H7.364V36.286h8.591Z" transform="translate(0.25 -31.75)" stroke="#000" stroke-width="0.5" opacity="0.998"/>
</svg>
