<svg xmlns="http://www.w3.org/2000/svg" width="23.107" height="20.54" viewBox="0 0 23.107 20.54">
  <path id="icon-finance" d="M17.331,9.949a.963.963,0,1,0,.963.963A.97.97,0,0,0,17.331,9.949Zm4.492-.963h-.542a6.484,6.484,0,0,0-2.026-2.542V3.851h-.642a6.274,6.274,0,0,0-3.586,1.284H8.986A6.525,6.525,0,0,0,4.5,6.975a6.446,6.446,0,0,0-1.81,3.295H2.246A.962.962,0,0,1,1.3,9.117a.95.95,0,0,1,.768-.747.632.632,0,0,0,.5-.622.64.64,0,0,0-.775-.627,2.239,2.239,0,0,0,.454,4.433h.321a6.379,6.379,0,0,0,2.568,5.1v1.956A1.931,1.931,0,0,0,7.06,20.54H8.986a1.931,1.931,0,0,0,1.926-1.926v-.642h2.568v.642A1.931,1.931,0,0,0,15.4,20.54H17.33a1.931,1.931,0,0,0,1.926-1.926V16.654A6.718,6.718,0,0,0,20.51,15.4h1.314a1.288,1.288,0,0,0,1.284-1.284V10.27A1.288,1.288,0,0,0,21.824,8.986Zm0,5.135H19.868a6.739,6.739,0,0,1-1.9,1.9v2.6a.642.642,0,0,1-.642.642H15.4a.642.642,0,0,1-.642-.642V16.689H9.628v1.926a.642.642,0,0,1-.642.642H7.06a.642.642,0,0,1-.642-.642v-2.6c-2.6-1.966-2.568-3.751-2.568-4.463A5.139,5.139,0,0,1,8.986,6.419h6.489a4.777,4.777,0,0,1,2.5-1.234v1.9a5.88,5.88,0,0,1,2.472,3.189h1.379ZM6.977,4.485a.665.665,0,0,0,.756-.529,3.252,3.252,0,0,1,3.262-2.681,3.3,3.3,0,0,1,3.125,2.15.669.669,0,0,0,.839.4.632.632,0,0,0,.41-.81A4.615,4.615,0,0,0,10.995,0,4.556,4.556,0,0,0,6.427,3.756.641.641,0,0,0,6.977,4.485Z" transform="translate(0)" opacity="0.57"/>
</svg>
