<svg xmlns="http://www.w3.org/2000/svg" width="17.492" height="19.99" viewBox="0 0 17.492 19.99">
  <path id="user" d="M8.746,10a5,5,0,1,0-5-5A5,5,0,0,0,8.746,10Zm0-8.746A3.748,3.748,0,1,1,5,5,3.752,3.752,0,0,1,8.746,1.249Zm1.978,10.62H6.768A6.768,6.768,0,0,0,0,18.637,1.354,1.354,0,0,0,1.353,19.99H16.138a1.354,1.354,0,0,0,1.353-1.354A6.767,6.767,0,0,0,10.724,11.869Zm5.414,6.872H1.353a.1.1,0,0,1-.1-.1,5.524,5.524,0,0,1,5.518-5.518h3.956a5.524,5.524,0,0,1,5.518,5.518A.1.1,0,0,1,16.138,18.741Z" opacity="0.57"/>
</svg>
