<svg xmlns="http://www.w3.org/2000/svg" width="18.474" height="20.97" viewBox="0 0 18.474 20.97">
  <path id="user" d="M8.737,9.985A4.992,4.992,0,1,0,3.744,4.992,4.992,4.992,0,0,0,8.737,9.985Zm0-8.737A3.744,3.744,0,1,1,4.992,4.992,3.749,3.749,0,0,1,8.737,1.248Zm1.976,10.609H6.761A6.761,6.761,0,0,0,0,18.618,1.352,1.352,0,0,0,1.352,19.97h14.77a1.352,1.352,0,0,0,1.352-1.352A6.761,6.761,0,0,0,10.713,11.857Zm5.409,6.865H1.352a.1.1,0,0,1-.1-.1,5.519,5.519,0,0,1,5.513-5.512h3.952a5.519,5.519,0,0,1,5.513,5.512A.1.1,0,0,1,16.122,18.722Z" transform="translate(0.5 0.5)" stroke="#000" stroke-width="1" opacity="0.998"/>
</svg>
